<?xml version="1.0" standalone="no"?>
<!DOCTYPE svg PUBLIC "-//W3C//DTD SVG 20010904//EN"
 "http://www.w3.org/TR/2001/REC-SVG-20010904/DTD/svg10.dtd">
<svg version="1.0" xmlns="http://www.w3.org/2000/svg"
 width="512.000000pt" height="512.000000pt" viewBox="0 0 512.000000 512.000000"
 preserveAspectRatio="xMidYMid meet">
<metadata>
Created by potrace 1.11, written by Peter Selinger 2001-2013
</metadata>
<g transform="translate(0.000000,512.000000) scale(0.100000,-0.100000)"
fill="#000000" stroke="none">
<path d="M473 3438 c19 -29 132 -206 252 -393 120 -187 251 -391 292 -454 l73
-114 0 -319 0 -318 255 0 255 0 0 324 0 325 -232 408 c-127 224 -255 449 -283
498 l-51 90 -297 3 -298 2 34 -52z"/>
<path d="M1666 3468 c-7 -13 -48 -84 -91 -158 -55 -96 -74 -139 -68 -151 4 -9
62 -111 127 -227 l120 -210 44 69 c24 38 47 69 50 68 6 0 367 -493 406 -553 7
-11 -50 -98 -227 -345 -130 -181 -237 -332 -237 -335 0 -4 114 -6 254 -6 l254
0 118 200 c66 110 124 200 129 200 6 0 64 -90 130 -200 l118 -200 269 0 269 0
-33 48 c-18 26 -122 172 -231 326 -109 153 -197 284 -195 291 3 15 420 594
428 595 3 0 27 -34 53 -76 l48 -77 85 149 c47 82 103 182 125 222 l41 72 -89
155 -88 155 -272 0 c-150 0 -273 -2 -273 -4 0 -2 79 -129 176 -283 97 -153
179 -284 181 -290 4 -10 -49 -13 -245 -13 l-250 0 -98 -170 c-55 -93 -103
-169 -109 -169 -5 -1 -55 76 -110 169 l-100 170 -257 0 -258 0 95 150 c52 83
138 218 190 300 l95 150 -280 0 c-279 0 -280 0 -294 -22z"/>
<path d="M4059 3362 c-37 -64 -142 -250 -234 -412 -92 -162 -189 -333 -216
-380 l-49 -86 0 -322 0 -322 250 0 249 0 3 323 3 322 149 230 c283 436 486
754 486 759 0 3 -129 6 -287 6 l-288 -1 -66 -117z"/>
</g>
</svg>
